<?xml version="1.0" standalone="no"?><!DOCTYPE svg PUBLIC "-//W3C//DTD SVG 1.1//EN" "http://www.w3.org/Graphics/SVG/1.1/DTD/svg11.dtd"><svg t="1588145100400" class="icon" viewBox="0 0 1024 1024" version="1.1" xmlns="http://www.w3.org/2000/svg" p-id="3728" xmlns:xlink="http://www.w3.org/1999/xlink" width="300" height="300"><defs><style type="text/css"></style></defs><path d="M511.959009 256.635717c-66.312116 0-120.277289 50.291205-120.277289 112.025917 0 61.734712 53.965173 111.965688 120.277289 111.965689s120.21706-50.230976 120.217059-112.025918c0-61.674483-53.904944-111.965688-120.217059-111.965688z m0 288.01502c-102.268821 0-185.505282-78.960203-185.505283-176.049332 0-96.96867 83.236461-175.989102 185.505283-175.989102 102.268821 0 185.505282 78.960203 185.505282 175.989102 0 97.028899-83.236461 176.049331-185.505282 176.049332z m0-480.627323c-179.903987 0-326.260427 137.322092-326.260427 305.963258 0 55.651585 16.141369 110.09859 46.496779 157.498803l280.064793 407.147957 280.24548-408.292308a290.484408 290.484408 0 0 0 45.713802-156.294223c0-168.761624-146.35644-306.023487-326.260427-306.023487z m335.174317 497.190294l-307.830357 448.525272a32.885027 32.885027 0 0 1-54.085631 0L177.386982 562.478517A355.351028 355.351028 0 0 1 120.470588 370.046901C120.470588 165.99109 296.098317 0 511.959009 0S903.447429 165.99109 903.447429 370.046901c0 67.516695-19.453963 133.648124-56.253874 191.166807z" fill="#34bdf0" p-id="3729"></path></svg>