<?xml version="1.0" standalone="no"?><!DOCTYPE svg PUBLIC "-//W3C//DTD SVG 1.1//EN" "http://www.w3.org/Graphics/SVG/1.1/DTD/svg11.dtd"><svg t="1587717454815" class="icon" viewBox="0 0 1024 1024" version="1.1" xmlns="http://www.w3.org/2000/svg" p-id="13977" xmlns:xlink="http://www.w3.org/1999/xlink" width="200" height="200"><defs><style type="text/css"></style></defs><path d="M188.7 189.4h647.2v647.2H188.7z" fill="#A3D4FF" p-id="13978"></path><path d="M514.8 453.1c0-65.5-47.5-86.8-109.8-86.8h-98.3v301.5h47.5V544.9h49.2l68.8 121.2h54.1l-73.7-127.8c37.6-11.4 62.2-39.3 62.2-85.2z m-114.7 54.1h-45.9V404h45.9c44.2 0 67.2 13.1 67.2 49.2-0.1 36-23 54-67.2 54z m455.4-404.7H167.4c-36 0-65.5 29.5-65.5 65.5v688.1c0 36 29.5 65.5 65.5 65.5h688.1c36 0 65.5-29.5 65.5-65.5v-688c0.1-36.1-29.4-65.6-65.5-65.6z m16.4 737.3c0 18-14.7 32.8-32.8 32.8H183.8c-18 0-32.8-14.7-32.8-32.8V184.4c0-18 14.7-32.8 32.8-32.8h655.4c18 0 32.8 14.7 32.8 32.8v655.4zM667.1 366.3h-91.8v301.5h47.5V553.1h45.9c65.5 0 113.1-31.1 113.1-96.7 0-67.2-47.5-90.1-114.7-90.1z m-3.2 149.1h-41V404h39.3c47.5 0 73.7 13.1 73.7 52.4-1.6 39.3-24.5 59-72 59z m0 0" fill="#2A5082" p-id="13979"></path></svg>