<?xml version="1.0" standalone="no"?><!DOCTYPE svg PUBLIC "-//W3C//DTD SVG 1.1//EN" "http://www.w3.org/Graphics/SVG/1.1/DTD/svg11.dtd"><svg t="1587711824427" class="icon" viewBox="0 0 1024 1024" version="1.1" xmlns="http://www.w3.org/2000/svg" p-id="9310" xmlns:xlink="http://www.w3.org/1999/xlink" width="200" height="200"><defs><style type="text/css"></style></defs><path d="M858.4 654.1H656.5c-15.3 0-27.8 12.5-27.8 27.8v150.6c0 15.3 12.5 27.8 27.8 27.8h201.9c15.3 0 27.8-12.5 27.8-27.8V681.8c0-15.3-12.5-27.7-27.8-27.7zM139.1 681.8v150.6c0 15.3 12.5 27.8 27.8 27.8h201.9c15.3 0 27.8-12.5 27.8-27.8V681.8c0-15.3-12.5-27.8-27.8-27.8H166.9c-15.3 0.1-27.8 12.5-27.8 27.8zM605.9 328V201.4c0-15.3-12.5-27.8-27.8-27.8H451.6c-15.3 0-27.8 12.5-27.8 27.8V328c0 15.3 12.5 27.8 27.8 27.8h126.6c15.3-0.1 27.7-12.5 27.7-27.8z" fill="#5cb1ff" p-id="9311"></path><path d="M874.2 615.9h-83.8v-53.7c0-47.7-37.7-86.6-84.1-86.6H547.1v-67.7l47.8 0.5h0.6c29.4 0 53.5-23.9 53.8-53.2l1.9-169.3c0.2-14.4-5.3-28-15.3-38.2-10.1-10.3-23.5-16-37.9-16.2l-164.8-1.8h-0.6c-29.4 0-53.5 23.9-53.8 53.2l-1.9 169.3c-0.3 29.7 23.5 54.1 53.2 54.4l56.3 0.6H478v68.4H321.8c-46.4 0-84.1 38.8-84.1 86.6v53.7h-85.8c-29.7 0-53.8 24.2-53.8 53.8V839c0 29.7 24.2 53.8 53.8 53.8h237.7c29.7 0 53.8-24.2 53.8-53.8V669.7c0-29.7-24.2-53.8-53.8-53.8h-82.8v-53.7c0-9.5 6.9-17.4 15-17.4h384.6c8.1 0 15 8 15 17.4v53.7h-85.3c-29.7 0-53.8 24.2-53.8 53.8V839c0 29.7 24.2 53.8 53.8 53.8h238.2c29.7 0 53.8-24.2 53.8-53.8V669.7c-0.1-29.7-24.3-53.8-53.9-53.8z m-505.4 22.2c24.1 0 43.8 19.6 43.8 43.8v150.6c0 24.1-19.6 43.8-43.8 43.8H166.9c-24.1 0-43.8-19.6-43.8-43.8V681.8c0-24.1 19.6-43.8 43.8-43.8h201.9z m82.8-266.4c-24.1 0-43.8-19.6-43.8-43.8V201.4c0-24.1 19.6-43.8 43.8-43.8h126.6c24.1 0 43.8 19.6 43.8 43.8V328c0 24.1-19.6 43.8-43.8 43.8H451.6z m450.6 460.8c0 24.1-19.6 43.8-43.8 43.8H656.5c-24.1 0-43.8-19.6-43.8-43.8V681.8c0-24.1 19.6-43.8 43.8-43.8h201.9c24.1 0 43.8 19.6 43.8 43.8v150.7z" fill="#5cb1ff" p-id="9312"></path></svg>