<?xml version="1.0" standalone="no"?><!DOCTYPE svg PUBLIC "-//W3C//DTD SVG 1.1//EN" "http://www.w3.org/Graphics/SVG/1.1/DTD/svg11.dtd"><svg t="1587718430742" class="icon" viewBox="0 0 1243 1024" version="1.1" xmlns="http://www.w3.org/2000/svg" p-id="20898" xmlns:xlink="http://www.w3.org/1999/xlink" width="364.16015625" height="300"><defs><style type="text/css"></style></defs><path d="M1184.036571 790.528c0-92.672-77.092571-168.594286-169.837714-168.594286a169.033143 169.033143 0 0 0-159.670857 115.346286c-71.314286-5.485714-107.446857-31.085714-136.118857-69.485714-32.475429-43.446857-51.785143-109.641143-69.485714-181.979429-17.700571-72.411429-33.499429-150.528-75.190858-216.649143l-7.826285-11.995428h288.036571c22.162286 67.364571 85.504 117.248 159.963429 117.248 93.037714 0 170.057143-76.214857 170.057143-168.96 0-92.672-77.019429-168.740571-169.764572-168.740572-74.605714 0-137.947429 49.005714-160.036571 116.443429H343.552A170.569143 170.569143 0 0 0 182.272 36.864 169.179429 169.179429 0 0 0 13.677714 205.385143a169.325714 169.325714 0 0 0 168.594286 168.813714c74.532571 0 138.971429-49.737143 161.28-117.101714h8.045714c77.092571 0 107.154286 23.771429 134.582857 67.145143 27.282286 43.446857 44.105143 111.908571 62.171429 185.782857 18.066286 73.801143 37.668571 153.892571 87.332571 220.16 44.982857 60.269714 118.052571 103.570286 218.112 111.030857a169.325714 169.325714 0 0 0 160.475429 118.125714 170.203429 170.203429 0 0 0 169.691429-168.96zM182.272 270.994286a64 64 0 0 1-64.219429-65.389715 63.634286 63.634286 0 0 1 64.219429-65.097142c36.498286 0 65.389714 28.525714 65.389714 65.097142s-28.818286 65.389714-65.389714 65.389715zM950.125714 205.531429a63.634286 63.634286 0 0 1 64.219429-65.097143c36.498286 0 65.389714 28.525714 65.389714 65.097143a64.950857 64.950857 0 0 1-65.389714 65.389714 63.853714 63.853714 0 0 1-64.219429-65.389714z m0 584.923428a63.634286 63.634286 0 0 1 64.219429-65.097143c36.498286 0 65.389714 28.525714 65.389714 65.097143a64.950857 64.950857 0 0 1-65.389714 65.389714c-36.571429 0.073143-64.219429-28.818286-64.219429-65.389714z" fill="#34bdf0" p-id="20899"></path></svg>