<?xml version="1.0" standalone="no"?><!DOCTYPE svg PUBLIC "-//W3C//DTD SVG 1.1//EN" "http://www.w3.org/Graphics/SVG/1.1/DTD/svg11.dtd"><svg t="1587718580188" class="icon" viewBox="0 0 1024 1024" version="1.1" xmlns="http://www.w3.org/2000/svg" p-id="23104" xmlns:xlink="http://www.w3.org/1999/xlink" width="300" height="300"><defs><style type="text/css"></style></defs><path d="M914 0H110C49.5 0 0 49.5 0 110v804c0 60.5 49.5 110 110 110h804c60.5 0 110-49.5 110-110V110c0-60.5-49.5-110-110-110zM321 419.36l-127 91.9 127 91.95v121.82L112 562.27V459.84l209-163z m183.41 353.29h-37.83l67.31-523.13h38.2z m421-210.38l-209 162.76V603.2l127-91.95-127-91.9V296.8l209 163z" fill="#06c4f8" p-id="23105"></path></svg>