<?xml version="1.0" standalone="no"?><!DOCTYPE svg PUBLIC "-//W3C//DTD SVG 1.1//EN" "http://www.w3.org/Graphics/SVG/1.1/DTD/svg11.dtd"><svg t="1587718564977" class="icon" viewBox="0 0 1024 1024" version="1.1" xmlns="http://www.w3.org/2000/svg" p-id="22332" xmlns:xlink="http://www.w3.org/1999/xlink" width="300" height="300"><defs><style type="text/css"></style></defs><path d="M920.5 82.2c16.7 0 31.4 14.6 31.4 31.4v800.9c0 16.7-14.7 31.4-31.4 31.4h-801c-16.7 0-31.4-14.6-31.4-31.4V113.6c0-16.7 14.6-31.4 31.4-31.4h801m0-68.2h-801C65.5 14 20 58.6 20 113.6v800.9c0 54 44.5 99.5 99.5 99.5h800.9c54 0 99.5-44.5 99.5-99.5V113.6c0.1-54-44.5-99.6-99.4-99.6" fill="#3CBAFF" p-id="22333"></path><path d="M425.3 232.3c-6.3 0-37.5 2.2-37.5 46.3v355.1c0 12.4 0.1 25.1 0.3 38 0.2 10.6-0.9 20.3-3.1 28.8-1.7 6.4-4.6 11.5-8.8 15.4-2.8 2.6-8.9 4.1-17.2 4.1-13.8 0-21.1-2.1-24.9-4-6.8-3.3-12.1-6.6-16-10-4.5-3.9-8.3-7.5-11.3-11-10.2-11.5-21.4-14-29-14-12 0-22.6 5.8-29.1 16-4.7 7.4-7.1 15.4-7.1 23.6 0 11.4 5.5 23 17.2 36.4 9.5 10.9 22.1 20.5 37.4 28.7 7.9 4.2 16.4 7.5 25.4 10 9.2 2.5 19 3.7 29 3.7 42 0 112.3-16.9 112.3-129.6V278.6c0-12.8-2.7-22.8-8.4-30.9-7.1-9.9-17.4-15.4-29.2-15.4M789.4 568.5c-6-17.4-14.5-32.9-25.1-46-10.4-12.7-22.8-24.1-36.9-33.9-13.2-9-27.3-17.5-42.5-25.5-15.2-7.7-29.1-15.1-41.9-22.1-11.2-6.2-21-13-28.9-20.2-7.1-6.4-12.4-13.5-16.3-21.6-3.6-7.7-5.5-17.5-5.5-29.3 0-20.5 5.4-35.8 16.5-46.9 16.7-16.8 43.9-23.5 73.3-9.6 11.2 5.4 20.5 11 27.4 16.4 9 7.6 18.3 12.7 27.3 15 15.8 4 30.9-2.5 38.5-16.8 8.1-15.9 7-32.7-3.1-47.5-7.2-10.5-17.5-19.9-30.8-28-12.4-7.5-27-13.5-43.5-17.6-35.1-9-69.7-8.7-99.5 4.5-15.9 7-30.1 16.9-42.1 29.2-12.1 12.3-21.8 27.2-29 44.4-7.1 17.2-10.7 36.4-10.7 57 0 24.9 3.4 45.1 10.4 62.1 7 16.8 16.8 31.5 29.3 43.7 11.7 11.5 26 21.7 42.5 30.7 14.8 8 31 16.4 49.1 25.5 10.1 4.9 20 10.8 29.7 17.6 9 6.4 17 13.8 23.9 22 6.6 8 12 17.2 16 27.1 3.9 9.6 5.8 20.4 5.8 32.1 0 11.6-2.2 22.5-6.5 32.7-4.6 10.6-10.6 20.1-18.1 28.2-7.2 7.9-15.5 14.1-24.6 18.4-8.7 4.2-17.6 6.3-27.2 6.3-28.3 0-52.9-8.2-75.4-25-9.3-6.8-17.5-11.4-24.9-13.9-14.7-5.1-29.5 0.1-38.5 13-7.1 9.9-9.6 21.1-7 32.5 3.9 17.6 19.1 33.3 48 49.3 14.2 7.8 29.6 13.8 46 17.7 16.1 3.8 32.7 5.8 49.4 5.8 20.5 0 40.5-4.6 59.4-13.7a167.5 167.5 0 0 0 48.8-35.3c14.2-14.9 25.5-32.5 33.6-52.5 8.1-20.1 12.3-42 12.3-65-0.2-23-3.2-43.5-9.2-60.8" fill="#3CBAFF" p-id="22334"></path></svg>