<?xml version="1.0" standalone="no"?><!DOCTYPE svg PUBLIC "-//W3C//DTD SVG 1.1//EN" "http://www.w3.org/Graphics/SVG/1.1/DTD/svg11.dtd"><svg t="1591237505562" class="icon" viewBox="0 0 1024 1024" version="1.1" xmlns="http://www.w3.org/2000/svg" p-id="2682" xmlns:xlink="http://www.w3.org/1999/xlink" width="300" height="300"><defs><style type="text/css"></style></defs><path d="M512 40.229C252.343 40.229 40.229 252.343 40.229 512c0 259.657 212.114 471.771 471.771 471.771S983.771 771.657 983.771 512c0-259.657-212.114-471.771-471.771-471.771z m0 885.028c-40.229 0-84.114-65.828-113.371-171.886 36.571-3.657 73.142-7.314 113.371-7.314 36.571 0 76.8 3.657 113.371 7.314C596.114 855.771 552.23 925.257 512 925.257z m0-237.714c-43.886 0-84.114 3.657-124.343 7.314-7.314-47.543-14.628-98.743-14.628-153.6h281.6c0 54.857-7.315 106.057-14.629 153.6-43.886-7.314-84.114-7.314-128-7.314z m0-588.8c40.229 0 84.114 65.828 113.371 171.886-36.571 3.657-73.142 7.314-113.371 7.314-36.571 0-76.8-3.657-113.371-7.314C427.886 168.229 471.77 98.743 512 98.743z m0 237.714c43.886 0 84.114-3.657 124.343-7.314 7.314 47.543 14.628 98.743 14.628 153.6h-281.6c0-54.857 7.315-106.057 14.629-153.6 43.886 7.314 84.114 7.314 128 7.314zM314.514 482.743H102.4c3.657-76.8 29.257-146.286 69.486-204.8 43.885 18.286 98.743 32.914 157.257 43.886-7.314 51.2-14.629 106.057-14.629 160.914z m0 58.514c0 54.857 7.315 109.714 14.629 160.914-58.514 10.972-113.372 25.6-157.257 43.886-40.229-58.514-65.829-128-69.486-204.8h212.114z m394.972 0H921.6c-3.657 76.8-29.257 146.286-69.486 204.8-43.885-18.286-98.743-32.914-157.257-43.886 7.314-51.2 14.629-106.057 14.629-160.914z m0-58.514c0-54.857-7.315-109.714-14.629-160.914 58.514-10.972 113.372-25.6 157.257-43.886 40.229 58.514 65.829 128 69.486 204.8H709.486z m102.4-252.343c-36.572 14.629-80.457 25.6-131.657 32.914C665.6 204.8 643.657 153.6 618.057 113.371c76.8 21.943 142.629 62.172 193.829 117.029z m-409.6-113.371c-25.6 40.228-47.543 91.428-62.172 149.942-47.543-10.971-91.428-21.942-128-36.571 51.2-54.857 117.029-95.086 190.172-113.371zM212.114 793.6c36.572-14.629 80.457-25.6 131.657-32.914C358.4 819.2 380.343 870.4 405.943 910.629c-76.8-21.943-142.629-62.172-193.829-117.029z m409.6 113.371c25.6-40.228 47.543-91.428 62.172-149.942 47.543 7.314 91.428 18.285 131.657 32.914-54.857 58.514-120.686 98.743-193.829 117.028z" p-id="2683" fill="#34bdf0"></path></svg>