<?xml version="1.0" standalone="no"?><!DOCTYPE svg PUBLIC "-//W3C//DTD SVG 1.1//EN" "http://www.w3.org/Graphics/SVG/1.1/DTD/svg11.dtd"><svg t="1588147153421" class="icon" viewBox="0 0 1024 1024" version="1.1" xmlns="http://www.w3.org/2000/svg" p-id="6423" xmlns:xlink="http://www.w3.org/1999/xlink" width="300" height="300"><defs><style type="text/css"></style></defs><path d="M692.1216 1023.8464c-64.1536 0-123.5456-16.6912-161.792-45.0048a316.8256 316.8256 0 0 1-35.9936 0c-38.1952 28.3136-97.5872 45.0048-161.792 45.0048-120.832 0-208.64-54.2208-208.64-128.9216 0-36.352 21.2992-68.9152 59.4944-92.2624a219.8016 219.8016 0 0 1-1.6896-2.6624c-22.3744 16.384-47.2576 21.0432-69.9904 13.3632-68.096-23.1424-71.8336-142.2336-40.7552-242.5344 16.5888-53.6064 47.3088-95.6416 72.9088-123.4944a172.032 172.032 0 0 1 22.016-94.8224v-1.2288C165.888 157.8496 321.3824 0.4608 512.6144 0.4608c191.1808 0 346.7264 157.3888 346.7264 350.8224v0.3584a172.1344 172.1344 0 0 1 22.3744 96.5632c25.2928 27.7504 55.6544 69.4272 72.1408 122.624 31.0784 100.3008 27.392 219.392-40.7552 242.5856-22.784 7.68-47.5136 3.0208-69.7856-13.2608a144.128 144.128 0 0 1-1.792 2.7136c38.0416 23.296 59.2896 55.808 59.2896 92.0576 0 74.7008-87.808 128.9216-208.6912 128.9216z m-153.5488-96.768c6.144 0 12.0832 2.2016 16.6912 6.2464 28.0576 24.2688 80.4864 39.3216 136.8576 39.3216 86.8864 0 157.5424-34.816 157.5424-77.7216 0-22.7328-20.4288-44.3392-56.064-59.2384a25.6 25.6 0 0 1-10.2912-39.424c11.9808-15.2576 22.6304-31.6928 31.744-48.7424a25.5488 25.5488 0 0 1 42.1376-4.4032c9.984 11.9296 25.9584 26.368 39.5264 21.8112 26.112-8.9088 35.6864-90.7264 8.2944-178.944-15.36-49.6128-45.6704-87.7568-68.4032-111.0528a25.6 25.6 0 0 1-6.912-22.0672c0.9216-5.632 1.3824-10.9568 1.3824-16.1792 0-22.3232-6.5024-44.1856-19.3536-65.0752a25.6 25.6 0 0 1-3.7376-15.104c0.1536-1.7408 0.2048-3.4816 0.2048-5.2224 0-165.2224-132.608-299.6224-295.5776-299.6224-163.0208 0-295.6288 134.4-295.6288 299.6224 0 1.9456 0.1024 3.9424 0.256 5.8368a25.8048 25.8048 0 0 1-3.6864 15.104c-12.5952 20.736-18.944 42.3936-18.944 64.4608 0 5.0176 0.4096 10.1888 1.28 15.5648a25.6 25.6 0 0 1-7.0144 21.9136c-22.9888 23.4496-53.6576 61.952-69.12 111.8208-27.2896 88.2688-17.7664 169.984 8.3968 178.8928 13.7728 4.8128 29.6448-9.9328 39.68-21.9648a25.4464 25.4464 0 0 1 42.1888 4.4544c8.96 16.9472 19.6608 33.4336 31.6928 48.8448a25.6 25.6 0 0 1-10.3424 39.424c-35.84 14.848-56.32 36.4544-56.32 59.2896 0 42.8544 70.656 77.7216 157.5424 77.7216 56.32 0 108.8-15.0528 136.8576-39.3728a24.7808 24.7808 0 0 1 18.688-6.144 296.8064 296.8064 0 0 0 50.432 0z" p-id="6424" fill="#1296db"></path></svg>