<?xml version="1.0" standalone="no"?><!DOCTYPE svg PUBLIC "-//W3C//DTD SVG 1.1//EN" "http://www.w3.org/Graphics/SVG/1.1/DTD/svg11.dtd"><svg t="1587718277248" class="icon" viewBox="0 0 1353 1024" version="1.1" xmlns="http://www.w3.org/2000/svg" p-id="18951" xmlns:xlink="http://www.w3.org/1999/xlink" width="396.38671875" height="300"><defs><style type="text/css"></style></defs><path d="M49.689899 521.743941m41.408249 0l1142.86768 0q41.408249 0 41.408249 41.408249l0 322.984344q0 41.408249-41.408249 41.40825l-1142.86768 0q-41.408249 0-41.408249-41.40825l0-322.984344q0-41.408249 41.408249-41.408249Z" fill="#FFFFFF" p-id="18952"></path><path d="M91.098148 33.126599h1142.86768a41.408249 41.408249 0 0 1 41.408249 41.40825v66.253199H49.689899V74.534849a41.408249 41.408249 0 0 1 41.408249-41.40825z" fill="#6694EF" p-id="18953"></path><path d="M91.098148 521.743941h1142.86768a41.408249 41.408249 0 0 1 41.408249 41.408249v66.253199H49.689899v-66.253199a41.408249 41.408249 0 0 1 41.408249-41.408249z" fill="#9BE8EF" p-id="18954"></path><path d="M173.914647 231.886196m-49.689899 0a49.689899 49.689899 0 1 0 99.379798 0 49.689899 49.689899 0 1 0-99.379798 0Z" fill="#4A4A4A" fill-opacity=".4" p-id="18955"></path><path d="M173.914647 720.503537m-49.689899 0a49.689899 49.689899 0 1 0 99.379798 0 49.689899 49.689899 0 1 0-99.379798 0Z" fill="#4A4A4A" fill-opacity=".1" p-id="18956"></path><path d="M124.224748 322.984344m24.844949 0l679.095288 0q24.84495 0 24.84495 24.84495l0 0q0 24.84495-24.84495 24.844949l-679.095288 0q-24.84495 0-24.844949-24.844949l0 0q0-24.84495 24.844949-24.84495Z" fill="#4A4A4A" fill-opacity=".4" p-id="18957"></path><path d="M124.224748 811.601686m24.844949 0l679.095288 0q24.84495 0 24.84495 24.844949l0 0q0 24.84495-24.84495 24.84495l-679.095288 0q-24.84495 0-24.844949-24.84495l0 0q0-24.84495 24.844949-24.844949Z" fill="#4A4A4A" fill-opacity=".1" p-id="18958"></path><path d="M281.576095 182.196297m41.408249 0l132.506398 0q41.408249 0 41.408249 41.408249l0 16.5633q0 41.408249-41.408249 41.408249l-132.506398 0q-41.408249 0-41.408249-41.408249l0-16.5633q0-41.408249 41.408249-41.408249Z" fill="#FAD352" p-id="18959"></path><path d="M281.576095 670.813638m41.408249 0l132.506398 0q41.408249 0 41.408249 41.408249l0 16.5633q0 41.408249-41.408249 41.408249l-132.506398 0q-41.408249 0-41.408249-41.408249l0-16.5633q0-41.408249 41.408249-41.408249Z" fill="#FAD352" fill-opacity=".3" p-id="18960"></path></svg>